<?xml version="1.0" encoding="utf-8"?>
<!-- Generator: Adobe Illustrator 16.0.0, SVG Export Plug-In . SVG Version: 6.00 Build 0)  -->
<!DOCTYPE svg PUBLIC "-//W3C//DTD SVG 1.1//EN" "http://www.w3.org/Graphics/SVG/1.1/DTD/svg11.dtd">
<svg version="1.1" xmlns="http://www.w3.org/2000/svg" xmlns:xlink="http://www.w3.org/1999/xlink" x="0px" y="0px" width="425px"
	 height="492.5px" viewBox="43.5 24 425 492.5" enable-background="new 43.5 24 425 492.5" xml:space="preserve">
<g id="circle">
	<path fill="none" stroke="#BBBBBB" stroke-width="40" stroke-linecap="round" stroke-miterlimit="10" d="M330.93,126.627
		c11.516,4.871,22.458,10.83,32.699,17.749c10.24,6.918,19.78,14.797,28.489,23.506c8.708,8.709,16.587,18.249,23.505,28.49
		c6.919,10.241,12.879,21.184,17.749,32.699s8.652,23.603,11.217,36.135c2.564,12.531,3.911,25.506,3.911,38.795
		s-1.347,26.264-3.911,38.795s-6.347,24.619-11.217,36.135s-10.83,22.458-17.749,32.699c-6.918,10.24-14.797,19.78-23.505,28.489
		c-8.709,8.708-18.249,16.587-28.489,23.505c-10.241,6.919-21.184,12.879-32.699,17.749s-23.604,8.652-36.135,11.217
		S269.289,496.5,256,496.5s-26.264-1.347-38.795-3.911s-24.619-6.347-36.134-11.217s-22.458-10.83-32.699-17.749
		c-10.241-6.918-19.781-14.797-28.49-23.505c-8.709-8.709-16.587-18.249-23.506-28.489c-6.919-10.241-12.878-21.184-17.749-32.699
		s-8.652-23.604-11.216-36.135C64.847,330.263,63.5,317.289,63.5,304s1.347-26.264,3.911-38.795
		c2.564-12.532,6.346-24.62,11.216-36.135s10.83-22.458,17.749-32.699c6.918-10.241,14.797-19.781,23.506-28.49
		s18.249-16.587,28.49-23.506c10.241-6.919,21.184-12.878,32.699-17.749"/>
	
		<line fill="#AE132A" stroke="#BBBBBB" stroke-width="40" stroke-linecap="round" stroke-miterlimit="10" x1="256" y1="225.316" x2="256" y2="87.626"/>
	<rect x="45.259" y="248.09" fill="none" width="400.242" height="89.996"/>
	<text transform="matrix(1 0 0 1 85.677 321.9373)" display="none"><tspan x="0" y="0" display="inline" fill="#AE132A" font-family="'FoundrySterling-Bold'" font-size="102">MET</tspan><tspan x="199.61" y="0" display="inline" fill="#AE132A" font-family="'FoundrySterling-Bold'" font-size="10"> </tspan><tspan x="201.98" y="0" display="inline" fill="#AE132A" font-family="'FoundrySterling-Bold'" font-size="102">E</tspan><tspan x="256.142" y="0" display="inline" fill="#AE132A" font-family="'FoundrySterling-Bold'" font-size="10"> </tspan><tspan x="258.512" y="0" display="inline" fill="#AE132A" font-family="'FoundrySterling-Bold'" font-size="102">R</tspan></text>
</g>
<g id="Layer_2">
	<path fill="#888888" d="M208,57V40c0-8.844,7.155-16,16-16h64c8.844,0,16,7.156,16,16v17c0,8.845-20.29,16-29.134,16v18.563
		c0,0-7.991-3.937-18.866-3.937s-19.586,3.937-19.586,3.937V73C227.57,73,208,65.844,208,57z"/>
	<path display="none" fill="none" stroke="#45842E" stroke-width="5" stroke-miterlimit="10" d="M395.719,126
		c-0.438,0.781-1.156,1.25-1.688,1.938c-16.5-12.938-34.78-23.657-54.53-31.625c0.312-0.75,0.375-1.563,0.78-2.313l16-27.688
		c4.438-7.688,14.22-10.313,21.875-5.875l27.688,16c7.656,4.438,10.281,14.188,5.875,21.875L395.719,126"/>
	<path fill="#888888" d="M420.768,155.834c-0.432,0.534-1.104,0.738-1.623,1.172c-14.477-15.049-30.671-28.716-48.322-40.478
		c0.314-0.542,0.409-1.204,0.81-1.719l15.767-18.857c4.373-5.238,13.4-4.875,20.183,0.806l24.539,20.505
		c6.786,5.682,8.759,14.47,4.415,19.714L420.768,155.834"/>
</g>
</svg>
