<?xml version="1.0" encoding="utf-8"?>
<!-- Generator: Adobe Illustrator 16.0.0, SVG Export Plug-In . SVG Version: 6.00 Build 0)  -->
<!DOCTYPE svg PUBLIC "-//W3C//DTD SVG 1.1//EN" "http://www.w3.org/Graphics/SVG/1.1/DTD/svg11.dtd">
<svg version="1.1" xmlns="http://www.w3.org/2000/svg" xmlns:xlink="http://www.w3.org/1999/xlink" x="-212.5px" y="-246.250px" width="425px"
	 height="492.5px" viewBox="0 0 425 492.5" enable-background="new 0 0 425 492.5" xml:space="preserve">
<g id="circle">
	<path fill="none" stroke="#BBBBBB" stroke-width="40" stroke-linecap="round" stroke-miterlimit="10" d="M330.93,126.627
		c11.516,4.871,22.458,10.83,32.699,17.749c10.24,6.918,19.78,14.797,28.489,23.506c8.708,8.709,16.587,18.249,23.505,28.49
		c6.919,10.241,12.879,21.184,17.749,32.699s8.652,23.603,11.217,36.135c2.564,12.531,3.911,25.506,3.911,38.795
		s-1.347,26.264-3.911,38.795s-6.347,24.619-11.217,36.135s-10.83,22.458-17.749,32.699c-6.918,10.24-14.797,19.78-23.505,28.489
		c-8.709,8.708-18.249,16.587-28.489,23.505c-10.241,6.919-21.184,12.879-32.699,17.749s-23.604,8.652-36.135,11.217
		S269.289,496.5,256,496.5s-26.264-1.347-38.795-3.911s-24.619-6.347-36.134-11.217s-22.458-10.83-32.699-17.749
		c-10.241-6.918-19.781-14.797-28.49-23.505c-8.709-8.709-16.587-18.249-23.506-28.489c-6.919-10.241-12.878-21.184-17.749-32.699
		s-8.652-23.604-11.216-36.135C64.847,330.263,63.5,317.289,63.5,304s1.347-26.264,3.911-38.795
		c2.564-12.532,6.346-24.62,11.216-36.135s10.83-22.458,17.749-32.699c6.918-10.241,14.797-19.781,23.506-28.49
		s18.249-16.587,28.49-23.506c10.241-6.919,21.184-12.878,32.699-17.749"/>
</g>
<g id="Layer_2">
</g>
</svg>
